<svg version="1.1" id="Layer_1" xmlns="http://www.w3.org/2000/svg" xmlns:xlink="http://www.w3.org/1999/xlink" width="560" height="340" viewBox="0 0 560 340"
	 overflow="visible" enable-background="new 0 0 560 340" xml:space="preserve">
<g>
	<path fill-rule="evenodd" clip-rule="evenodd" d="M454.257,126.921c-3.92-14.31-14.01-27.403-23.626-38.412
		c-9.166-10.491-20.152-23.028-32.612-29.622c-6.503-3.442-14.274-3.005-20.295-6.642c-6.66-4.024-12.26-9.546-19.018-13.388
		c-13.103-7.449-26.093-8.983-40.914-8.847c-15.078,0.139-30.202-0.667-45.166-2.57c-18.405-2.34-33.619,3.015-51.35,7.039
		c-15.575,3.534-31.235,5.346-47.194,3.702c-8.249-0.85-16.288-2.453-24.294-4.588c-5.355-1.428-9.703-5.363-15.004-6.275
		c-4.091-0.704-8.599-6.792-12.513-9.319c-5.752-3.713-11.774-6.799-18.801-5.686c-5.941,0.941-9.063,5.893-11.476,11.145
		c-1.402,3.053-2.204,6.411-2.45,9.755c-0.286,3.925-0.297,5.582-1.763,9.027c-3.782,8.886-14.81,13.497-18.988,22.789
		C65,73.467,62.961,82.658,62.961,91.991c0,3.152,0.306,6.645-0.456,9.651c-0.667,2.628-1.867,3.404-1.867,6.701
		c0,6.681,1.063,13.621,0.206,19.823c-0.663,4.804-2.094,10.216-1.534,15.441c0.187,1.757,0.74,12.829,1.078,13.158
		c-2.347,6.168-8.103,7.239-10.875,13.033c-2.33,4.874-1.303,9.807-2.282,14.447c-0.977,4.639-4.514,9.289-6.434,13.739
		c-1.997,4.631-3.644,10.838-7.179,14.964c-2.883,3.362-7.216,3.371-10.167,5.83c-3.66,3.052-0.409,8.041-4.442,11.208
		c-2.651,2.084-7.026,3.677-8.279,7.182c-1.039,2.904,0.264,5.797-2.449,8.302c-4.808,4.439,1.683,16.189,7.077,16.998
		c6.888,1.031,12.456-3.608,14.36-9.815c1.067-3.482-0.097-8.285,1.127-11.394c3.042-7.734,5.653-15.238,10.867-21.814
		c10.662-13.447,26.517-23.438,38.951-35.325c2.021-1.931,2.734-4.876,4.709-7.222c2.721-3.231,6.253-5.694,9.725-8.055
		c6.715-4.566,13.074-6.952,20.946-8.549c-2.443,6.736-3.191,14.701-1.494,21.626c0.903,3.677,2.968,7.456,1.411,11.247
		c-1.283,3.127-4.796,10.397-7.802,11.937c-3.047,1.557-4.879,2.029-5.725,5.236c-1.051,3.985-1.663,8.032-1.663,12.161
		c0,4.912-1.317,13.926,5.229,9.894c3.541-2.18,6.258-5.854,9.131-8.759c2.3-2.324,4.568-4.537,7.428-6.371
		c6.055-3.883,5.207-9.668,6.225-16.293c0.553-3.585,0.663-8.451,1.994-11.83c1.403-3.565,4.5-4.985,7.636-7.139
		c2.039-1.403,11.274-10.228,13.86-9.642c7.897,1.785,15.43,2.881,22.622,6.819c7.508,4.111,14.753,8.831,21.9,13.532
		c4.542,2.986,5.405,8.723,10.929,11.063c2.448,1.037,8.455-8.67,11.538-9.527c3.185-0.886,9.066,0.966,12.953,1.003
		c9.333,0.092,18.589,0.674,27.879,1.531c15.45,1.426,28.525,7.425,42.861,12.661c3.428,1.254,4.434,6.084,7.821,7.781
		c6.575,3.292,12.342,8.333,16.726,14.217c2.275,3.054,4.101,6.179,6.891,8.842c2.195,2.094,6.485,4.091,7.802,6.351
		c2.389,4.097,1.66,13.651,1.66,18.388c0,3.127-3.884,15.594-1.743,17.268c2.839,2.219,5.778-5.877,7.284-3.527
		c0.538,0.838,1.425,7.126,1.454,8.156c0.102,3.776,2.326,6.019,2.634,9.401c0.543,5.988,18.518,6.165,23.2,3.694
		c4.701-2.48,6.591-7.794,3.715-12.495c-2.013-3.289-5.626-3.789-7.222-7.409c-1.067-2.419-1.327-4.984-2.22-7.367
		c8.604,4.091,13.031,16.007,15.024,24.988c0.612,2.762,2.033,4.082,2.033,6.959c0,2.23,0.046,4.27-0.082,6.779
		c-0.142,2.772,0.079,5.585,2.158,7.391c2.608,2.266,4.876,0.515,6.37,3.674c0.694,1.472,2.852,2.478,3.342,3.757
		c1.835,4.798-1.984,6.443,4.066,9.15c5.508,2.466,12.484,3.466,18.219,1.143c2.818-1.143,7.638-4.483,7.638-7.928
		c0-2.914-2.328-5.375-4.131-7.576c-1.137-1.391-2.382-2.653-3.714-3.859c-1.64-1.485-0.985-1.757-1.535-2.803
		c-0.796-1.514,0.621-1.968-1.453-3.382c-1.681-1.148-3.23-2.423-4.668-3.861c-3.647-3.646-5.631-8.098-8.404-12.349
		c-5.88-9.014-12.928-15.281-14.692-26.442c-0.598-3.775,0.032-7.848-0.913-11.29c-1.13-4.114-4.278-7.156-7.326-10.313
		c-6.522-6.759-11.773-13.25-14.589-22.271c5.565,2.979,12.992-5.46,14.423-4.356c7.499,5.771,18.155,4.594,22.392,13.781
		c3.654,7.922,2.3,15.421,11.206,20.463c1.398,0.791,6.187,1.729,6.972,2.822c1.104,1.539-0.423,4.074,1.163,6.02
		c2.843,3.485,6.652,1.067,9.836,2.408c-4.011,2.895-1.657,11.524,0.497,14.858c3.509,5.434,8.575,9.407,14.519,11.854
		c5.153,2.122,16.835,1.522,21.673-2.432c2.262-1.849,4.207-4.868,4.772-7.762c0.422-2.155,0.466-3.267-0.684-5.334
		c-1.516-2.724-0.083-9.147,0.131-12.268c0.57-8.275,2.473-22.174,7.609-28.971c6.23-8.243,14.481-11.157,17.598-22.021
		c1.694-5.907-1.294-10.778-1.287-16.418c0.008-5.214,1.015-10.733,0.922-16.218c-0.049-2.837,18.632-2.73,21.116-2.585
		c6.237,0.366,12.077,1.715,17.888,3.694c2.105,0.718,8.434,4.833,10.502,3.197c2.744-2.171-2.401-8.696-4.006-10.376
		c-6.929-7.259-15.708-11.708-25.482-13.776c-6.225-1.317-12.583-2.025-18.946-2.081c-5.309-0.047-11.783,2.421-15.897-1.328
		c3.525-1.714,7.186-3.301,10.953-4.402c1.502-0.438,6.332-2.641,2.203-3.781c-6.735-1.857-13.898-2.464-20.845-1.677
		c-2.488,0.281-5.085,0.608-7.584,0.603c-4.029-0.008-3.314-0.143-5.416-3.424C460.809,139.191,458.011,132.918,454.257,126.921
		 M464.881,166.812c0.154-0.123,0.058-0.63,1.037-0.458C465.572,166.434,465.159,166.588,464.881,166.812 M482.437,159.713
		C481.618,159.415,481.616,159.415,482.437,159.713 M479.365,160.792C479.505,160.758,479.456,160.769,479.365,160.792
		 M108.865,25.847c0.75,0.497,1.437,1.459,2.075,2.076c-4.675,1.816-9.326,3.693-13.945,5.645
		C98.018,26.027,101.437,25.801,108.865,25.847 M344.812,248.668C344.876,248.505,344.866,248.53,344.812,248.668 M344.978,277.225
		c0.123-0.372,0.025-0.643,0.207-1.037C345.691,276.647,345.162,276.664,344.978,277.225 M370.419,283.244
		c0.305,0.125,0.608,0.248,0.913,0.374C370.579,283.825,370.681,283.437,370.419,283.244"/>
	<path fill-rule="evenodd" clip-rule="evenodd" fill="#FFFFFF" d="M442.925,129.453c2.419,1.142,4.545,2.838,7.305,2.948
		c-1.781-1.801-4.035-3.395-6.412-4.296C440.014,126.662,439.407,128.65,442.925,129.453"/>
	<path fill-rule="evenodd" clip-rule="evenodd" fill="#FFFFFF" d="M443.798,158.758c-2.587,4.431,2.278,9.322,6.162,10.876
		c6.585,2.635,11.201-2.088,16.291-5.148c3.587-2.154,8.817-6.432,12.908-6.889c4.934-0.553,10.091-3.405,14.275-5.937
		c-2.19-4.554-15.692-1.604-20.144-1.474C462.627,150.499,452.52,152.013,443.798,158.758 M483.889,152.533
		c1.033-0.223,1.507-0.816,2.367,0C485.436,152.743,484.62,152.536,483.889,152.533"/>
	<path fill-rule="evenodd" clip-rule="evenodd" fill="#FFFFFF" d="M441.224,131.53c-1.622,1.818,10.327,6.988,12.658,6.931
		C449.791,135.963,445.446,133.805,441.224,131.53"/>
	<path fill-rule="evenodd" clip-rule="evenodd" fill="#FFFFFF" d="M443.589,142.487c-0.367,1.292,3.543,1.815,5.313,2.2
		c-2.444,1.338-4.899,2.084-7.678,2.367c3.908,1.068,16.547-2.594,8.342-4.027c0.811,0.093,1.964-0.1,2.864,0
		C449.427,140.749,446.795,141.042,443.589,142.487"/>
	<path fill-rule="evenodd" clip-rule="evenodd" fill="#FFFFFF" d="M494.681,163.157c-4.822,2.321,0.494,4.83,1.557,7.202
		c2.664,5.959,3.364,6.105,9.566,5.376c6.712-0.788,13.214-0.686,19.897,0.317c3.034,0.457,16.877,6.435,18.533,5.328
		c2.885-1.928-1.761-4.836-2.779-6.102c-3.27-4.064-4.321-4.924-9.962-6.765C518.644,164.317,508.305,161.496,494.681,163.157"/>
	<path fill-rule="evenodd" clip-rule="evenodd" fill="#FFFFFF" d="M419.27,192.297c-4.374,1.814-7.73,9.878-8.717,14.03
		c-1.497,6.309-2.148,12.35-0.207,18.681c1.688-5.047-0.862-11.516,0.497-16.813C412.222,202.824,415.692,196.799,419.27,192.297"/>
	<path fill-rule="evenodd" clip-rule="evenodd" fill="#FFFFFF" d="M450.229,210.729c-3.74,2.379,0.588,8.324,3.652,7.47
		c1.877-0.522,3.099-2.084,2.616-4.024C455.899,211.769,452.438,212.021,450.229,210.729"/>
	<path fill-rule="evenodd" clip-rule="evenodd" fill="#FFFFFF" d="M462.972,288.515c7.215-4.284-1.375-9.83-6.661-7.72
		c-4.385,1.749,0.34,2.114,1.39,2.863C459.896,285.225,459.867,290.272,462.972,288.515"/>
	<path fill-rule="evenodd" clip-rule="evenodd" fill="#FFFFFF" d="M420.596,314.914c-2.041,0.506-3.952,1.897-4.771,3.985
		c-2.096-3.304-7.563,3.336-10.045,2.097c-0.475-0.236-4.337,0.406-5.125,0.83c-2.074,1.114-1.556,4.173-0.312,5.625
		c1.72,2.004,1.067,4.495,4.275,5.77c2.292,0.911,5.992,0.24,8.3-0.291c3.441-0.792,10.817-4.559,6.641-8.674
		c1.728,1.294,6.271,3.285,6.538-0.457C426.322,320.635,422.826,316.886,420.596,314.914"/>
	<path fill-rule="evenodd" clip-rule="evenodd" fill="#FFFFFF" d="M241.218,31.201c-1.827-5.938-47.07,10.093-53.788,7.347
		c1.068,5.602,16.384-0.038,20.439-0.786c9.564-1.764,19.088-3.749,28.618-5.689c-2.156,2.445-5.565,3.392-8.051,5.521
		C233.005,36.418,237.096,33.412,241.218,31.201"/>
	<path fill-rule="evenodd" clip-rule="evenodd" fill="#FFFFFF" d="M274.297,138.253c-2.197,1.964,0.29,18.685,2.137,21.805
		c4.127,6.971,10.351,12.61,14.632,19.581c-0.633,0.411,8.186,16.746,9.006,19.84c0.613,2.309,0.34,8.119,2.241,9.631
		c3.007,2.386-0.07-6.53-0.209-7.929c-1.028-10.307-7.701-19.965-13.363-28.516c-3.053-4.611-9.101-9.535-10.542-14.924
		C276.691,152.096,278.177,142.713,274.297,138.253"/>
	<path fill-rule="evenodd" clip-rule="evenodd" fill="#FFFFFF" d="M325.18,120.528c-1.065,1.168,1.883,2.78,2.988,4.462
		c2.137,3.251,4.165,6.563,6.018,9.985C334.48,129.177,330.032,123.371,325.18,120.528"/>
	<path fill-rule="evenodd" clip-rule="evenodd" fill="#FFFFFF" d="M177.677,37.926c-4.611-1.367-10.223-0.217-15.072-1.087
		c-5.948-1.068-11.045-3.134-16.635-5.102c-3.79-1.333-17.462-5.411-20.046-0.536c6.851-0.92,14.493,0.3,20.669,2.947
		c7.819,3.354,15.924,4.849,24.486,6.227c-1.26,0.679-2.197,1.736-2.697,3.071C171.9,42.639,176.097,41.481,177.677,37.926"/>
	<path fill-rule="evenodd" clip-rule="evenodd" fill="#FFFFFF" d="M114.51,154.815c-6.079,3.813-12.14,7.128-18.801,9.796
		c3.114,2.226,8.199-2.511,11.077-4.012c6.175-3.223,12.372-6.401,18.568-9.586c2.76-1.418,5.098-1.028,7.541-3.38
		C128.925,145.097,117.885,152.352,114.51,154.815"/>
	<path fill-rule="evenodd" clip-rule="evenodd" fill="#FFFFFF" d="M107.246,208.9c-3.044,2.332-3.684,6.684-4.192,10.171
		c-0.56,3.851-1.842,12.093,2.906,9.756c3.41-1.68,5.816-5.822,5.208-9.113c-0.314-1.697-1.749-2.977-2.033-5.188
		C108.868,212.449,109.522,209.789,107.246,208.9"/>
	<path fill-rule="evenodd" clip-rule="evenodd" fill="#FFFFFF" d="M26.73,247.214c-1.23,0.236-2.444,1.211-2.657,2.594
		c-0.204,1.337-3.188,1.697-4.232,2.968c-0.317-1.977-2.157-1.505-3.28-2.696c-1.243-1.32-1.42-3.04-2.178-4.628
		c-2.524-5.275-5.447,2.183-5.873,4.711c-0.661,3.908,0.103,6.879,3.32,9.382c5.005,3.891,6.515,0.335,7.719-4.442
		c0.78,1.674-1.26,4.119-0.042,5.602c1.333,1.62,4.825-0.688,6.122-1.908C28.074,256.495,31.408,249.107,26.73,247.214"/>
	<path fill-rule="evenodd" clip-rule="evenodd" fill="#FFFFFF" d="M372.412,196.116c-1.999,1.73,2.345,12.284,3.233,14.975
		c1.399,4.236,2.966,7.261,7.391,8.646c-3.294-3.665-5.06-5.187-6.631-10.073C374.966,205.18,373.506,200.702,372.412,196.116"/>
	<path fill-rule="evenodd" clip-rule="evenodd" fill="#FFFFFF" d="M364.359,212.058c-0.923-4.582-4.978-15.498-8.55-18.184
		c2.328,9.962,7.271,18.566,10.584,28.063c0.159,0.454,0.717,4.388,1.037,4.522c2.093,0.883,0.196-3.321,0.249-3.694
		C368.193,219.154,365.343,215.317,364.359,212.058"/>
	<path fill-rule="evenodd" clip-rule="evenodd" fill="#FFFFFF" d="M352.864,287.852c-2.913,3.177,5.349,9.311,7.802,9.879
		c5.961,1.383,11.256,0.363,16.768-2.054c1.669-0.733,1.228-5.665,0.539-7.036c-1.228-2.443-4.064-3.555-6.598-4.006
		c-2.194-0.392-7.254,3.257-10.025,3.611C358.527,288.607,355.665,288.369,352.864,287.852"/>
</g>
<path fill-rule="evenodd" clip-rule="evenodd" d="M-107.698,542.957c0.453-0.198,0.907-0.396,1.36-0.595c-1.483,0-2.965,0-4.448,0
	C-109.781,543.431-108.989,543.172-107.698,542.957"/>
</svg>
